<?xml version="1.0" encoding="UTF-8"?>
<svg width="473px" height="138px" viewBox="0 0 473 138" version="1.1" xmlns="http://www.w3.org/2000/svg" xmlns:xlink="http://www.w3.org/1999/xlink">
    <!-- Generator: Sketch 48.2 (47327) - http://www.bohemiancoding.com/sketch -->
    <title>Group</title>
    <desc>Created with Sketch.</desc>
    <defs></defs>
    <g id="Page-1" stroke="none" stroke-width="1" fill="none" fill-rule="evenodd">
        <g id="Group" transform="translate(0.628522, -26.250000)" stroke="#000000">
            <path d="M91.8731819,120.732078 L86.3486077,127.53352 C98.4938474,137.211332 114.386743,144.622786 133.14098,150.11159 C151.937846,155.612877 173.970259,159.287244 198.695523,161.265891 C248.132218,165.222087 309.039088,162.45187 377.746141,153.408993 C396.891394,150.824045 412.615011,147.221795 425.349709,142.87918 C438.071615,138.540943 447.932392,133.422259 455.24277,127.742637 C462.570146,122.049793 467.415439,115.724951 469.862761,109.04557 C472.324688,102.326326 472.218405,95.6262288 470.256178,89.4706985 C470.186044,89.2506898 470.126611,89.0788384 470.09423,89.0024225 C468.710127,85.7354999 466.733286,82.8470468 464.310562,80.3092026 C461.8953,77.7791698 459.041135,75.6010885 455.880578,73.7212473 C449.590976,69.9803122 441.868231,67.2913504 433.387228,65.3788967 C416.431041,61.5553075 395.505566,60.633825 374.668424,61.3604542 C353.754202,62.0888573 327.067484,65.1954757 298.572725,69.0832403 C272.388669,72.6557344 237.136383,78.0475721 210.952359,81.6200661 C195.784986,83.8517368 170.026423,87.3274592 148.080302,90.3161665 C126.131129,93.3052888 107.984731,95.8086978 108.020029,96.0986383 C108.055343,96.3885789 126.272613,94.4650102 148.293862,92.0555981 C172.336679,89.4249857 187.353562,87.7274181 211.39638,85.0968057 C242.814922,81.4061157 267.812055,77.9900771 299.230557,74.2993871 C327.814431,70.9890869 354.269103,68.5053935 374.814855,68.3688896 C395.439966,68.230913 415.528273,69.7522932 431.317212,73.8933336 C439.209481,75.9632762 445.80454,78.6319447 450.790137,81.906101 C453.268509,83.5336997 455.293967,85.2750842 456.87827,87.1138505 C458.363075,88.8371386 459.460378,90.6450175 460.195991,92.545868 C461.234847,96.6673393 460.997023,100.818811 459.250073,104.906734 C457.472504,109.066319 453.968815,113.534339 447.869804,117.938086 C441.749872,122.356935 433.096157,126.648588 421.242639,130.393665 C409.402068,134.134657 394.494016,137.290642 375.97526,139.501368 C307.771715,147.891262 247.975283,149.96437 200.046102,145.55142 C176.088339,143.345568 155.267349,139.533932 137.936159,134.168449 C120.562217,128.789728 107.046519,121.957155 97.3977561,113.930636 L91.8731819,120.732078 Z" id="path5297-2-7-2" stroke-width="0.75" fill="#FFA800"></path>
            <text id="tspan4661-7-3-2-4-4-9-2" stroke-width="0.75" fill="#FFFFFF" font-family="Helvetica" font-size="115.561832" font-weight="normal">
                <tspan x="91.4198208" y="112.662409">WARG</tspan>
            </text>
            <path d="M2.26894475,65.7163971 C3.2163065,66.5351274 15.7765372,76.2964478 15.7765372,76.2964478 L32.7909535,89.7844882 L38.9926116,97.8768095 C38.9926116,97.8768095 48.424422,114.574579 48.6557365,114.815885 C48.8869615,115.057184 49.1685373,115.378012 49.5835331,115.512416 C49.9985371,115.646861 50.587564,115.70954 51.0064005,115.60066 C51.4253101,115.491716 51.7136803,115.35164 51.9718301,115.085329 C52.230045,114.819002 52.4753224,114.558752 52.5475776,114.165099 C52.6199143,113.771512 52.5980261,113.465916 52.5190173,112.902691 C52.4404153,112.339539 50.7589994,103.350333 50.7589994,103.350333 L68.8035155,113.802578 C68.8035155,113.802578 73.3331721,117.392111 73.5791248,117.543172 C73.8251507,117.694232 74.2162649,117.73726 74.5511127,117.747325 C74.885985,117.757415 75.3206151,117.721287 75.5540289,117.598429 C75.7874183,117.475473 91.1112876,101.630373 91.4212692,101.222936 C91.7313403,100.815557 92.0281809,100.360479 92.1987375,99.9425453 C92.3694161,99.5247015 92.4983364,99.2161927 92.5527639,98.7286324 C92.6071994,98.2411046 92.7326616,97.5797492 92.5783136,97.0263048 C92.4238354,96.4728929 92.2240919,95.8883657 91.7392005,95.4850056 C91.2543253,95.0816861 90.7659432,94.7718673 90.0668572,94.6263396 C89.3677549,94.4807469 88.4409103,94.4767273 87.585556,94.5265086 C86.7302017,94.5752483 86.1344945,94.6336628 84.9733898,94.8598022 C83.8122525,95.0857627 68.6223484,100.357387 68.6223484,100.357387 L55.4612306,89.9496582 C55.4612306,89.9496582 69.981496,89.7728443 70.1934529,89.7711519 C70.4529209,89.7695245 70.9531666,89.644697 71.2777376,89.4027476 C71.6023167,89.1611075 71.9608835,88.6914238 72.0914637,88.3127916 C72.2219951,87.9341756 72.2506043,87.6479943 72.1878122,87.2991918 C72.1205204,86.9499173 71.9940737,86.6483736 71.7606192,86.3617041 C71.5268718,86.0751729 71.2434652,85.7407645 70.8841254,85.6322107 C70.5917031,85.5439095 37.2683797,75.7042964 37.2683797,75.7042964 C37.2683797,75.7042964 21.6877967,63.3043894 20.4980812,62.5122504 C19.3084372,61.7200625 18.8838814,61.5058761 17.9117625,61.0681621 C16.9394922,60.6304075 15.7580722,60.1274034 14.6735752,59.812019 C13.5889536,59.4968135 12.5534616,59.2223493 11.3223344,59.0500432 C10.091295,58.8777942 8.22106836,58.6656664 7.10677091,58.7087022 C5.99252472,58.751502 5.22444391,58.8486561 4.48831002,59.0266172 C3.7521208,59.2048794 3.01429607,59.3949889 2.56977158,59.6507465 C2.12529672,59.9066831 1.880995,60.0660841 1.62588834,60.360687 C1.37078249,60.6552656 1.06932262,60.9932705 0.911981078,61.4465747 C0.754522368,61.8999521 0.59355586,62.5150983 0.612190071,62.9870277 C0.631059436,63.4590303 0.726516943,63.7792806 1.02197996,64.2515681 C1.31758537,64.7238962 1.3261551,64.8978947 2.27351929,65.7166168 L2.26894475,65.7163971 Z" id="path4741-9-3-3" stroke-width="0.5" fill="#FFFFFF"></path>
        </g>
    </g>
</svg>